HIERARCHY
ROOT mixamorig:Hips
{
	OFFSET -0.614970 34.543877 -1.527721
	CHANNELS 6 Xposition Yposition Zposition Xrotation Yrotation Zrotation
	JOINT mixamorig:Spine
	{
		OFFSET 0.000000 2.976032 0.205786
		CHANNELS 3 Xrotation Yrotation Zrotation
		JOINT mixamorig:Spine1
		{
			OFFSET 0.000000 3.472038 0.240084
			CHANNELS 3 Xrotation Yrotation Zrotation
			JOINT mixamorig:Spine2
			{
				OFFSET 0.000000 3.968044 0.274382
				CHANNELS 3 Xrotation Yrotation Zrotation
				JOINT mixamorig:Neck
				{
					OFFSET 0.000000 4.464046 0.308679
					CHANNELS 3 Xrotation Yrotation Zrotation
					JOINT mixamorig:Head
					{
						OFFSET -0.000000 3.149254 0.306977
						CHANNELS 3 Xrotation Yrotation Zrotation
						JOINT mixamorig:HeadTop_End
						{
							OFFSET 0.000000 8.886536 0.866223
							CHANNELS 3 Xrotation Yrotation Zrotation
							End Site
							{
								OFFSET 0.000000 8.928654 0.000000
							}
						}
					}
				}
				JOINT mixamorig:LeftShoulder
				{
					OFFSET 2.039129 3.763176 0.305462
					CHANNELS 3 Xrotation Yrotation Zrotation
					JOINT mixamorig:LeftArm
					{
						OFFSET 4.103379 -1.402306 -0.006436
						CHANNELS 3 Xrotation Yrotation Zrotation
						JOINT mixamorig:LeftForeArm
						{
							OFFSET 7.582575 -0.471954 0.006440
							CHANNELS 3 Xrotation Yrotation Zrotation
							JOINT mixamorig:LeftHand
							{
								OFFSET 7.544544 0.485027 -0.046688
								CHANNELS 3 Xrotation Yrotation Zrotation
								JOINT mixamorig:LeftHandIndex1
								{
									OFFSET 3.453777 0.098137 0.110992
									CHANNELS 3 Xrotation Yrotation Zrotation
									JOINT mixamorig:LeftHandIndex2
									{
										OFFSET 0.757856 -0.104584 -0.109153
										CHANNELS 3 Xrotation Yrotation Zrotation
										JOINT mixamorig:LeftHandIndex3
										{
											OFFSET 1.002211 0.059299 0.082061
											CHANNELS 3 Xrotation Yrotation Zrotation
											JOINT mixamorig:LeftHandIndex4
											{
												OFFSET 0.627235 -0.003593 0.031210
												CHANNELS 3 Xrotation Yrotation Zrotation
												End Site
												{
													OFFSET 0.615889 -0.084991 -0.088706
												}
											}
										}
									}
								}
							}
						}
					}
				}
				JOINT mixamorig:RightShoulder
				{
					OFFSET -2.039129 3.763176 0.311897
					CHANNELS 3 Xrotation Yrotation Zrotation
					JOINT mixamorig:RightArm
					{
						OFFSET -4.103373 -1.402309 0.006435
						CHANNELS 3 Xrotation Yrotation Zrotation
						JOINT mixamorig:RightForeArm
						{
							OFFSET -7.582584 -0.471951 0.000442
							CHANNELS 3 Xrotation Yrotation Zrotation
							JOINT mixamorig:RightHand
							{
								OFFSET -7.544540 0.485027 -0.063385
								CHANNELS 3 Xrotation Yrotation Zrotation
								JOINT mixamorig:RightHandIndex1
								{
									OFFSET -3.350592 0.002247 -0.003047
									CHANNELS 3 Xrotation Yrotation Zrotation
									JOINT mixamorig:RightHandIndex2
									{
										OFFSET -0.766212 0.031059 0.064805
										CHANNELS 3 Xrotation Yrotation Zrotation
										JOINT mixamorig:RightHandIndex3
										{
											OFFSET -1.039288 -0.056969 -0.192446
											CHANNELS 3 Xrotation Yrotation Zrotation
											JOINT mixamorig:RightHandIndex4
											{
												OFFSET -0.579010 -0.060932 -0.082256
												CHANNELS 3 Xrotation Yrotation Zrotation
												End Site
												{
													OFFSET -0.585421 0.023735 0.049514
												}
											}
										}
									}
								}
							}
						}
					}
				}
			}
		}
	}
	JOINT mixamorig:LeftUpLeg
	{
		OFFSET 2.712961 -1.650421 0.058419
		CHANNELS 3 Xrotation Yrotation Zrotation
		JOINT mixamorig:LeftLeg
		{
			OFFSET 0.078689 -15.686089 -0.096571
			CHANNELS 3 Xrotation Yrotation Zrotation
			JOINT mixamorig:LeftFoot
			{
				OFFSET -0.082319 -14.982166 -1.231296
				CHANNELS 3 Xrotation Yrotation Zrotation
				JOINT mixamorig:LeftToeBase
				{
					OFFSET 0.068894 -2.740608 4.050536
					CHANNELS 3 Xrotation Yrotation Zrotation
					JOINT mixamorig:LeftToe_End
					{
						OFFSET -0.014961 0.028371 2.141744
						CHANNELS 3 Xrotation Yrotation Zrotation
						End Site
						{
							OFFSET -0.014961 0.028371 2.141744
						}
					}
				}
			}
		}
	}
	JOINT mixamorig:RightUpLeg
	{
		OFFSET -2.712961 -1.650421 0.089875
		CHANNELS 3 Xrotation Yrotation Zrotation
		JOINT mixamorig:RightLeg
		{
			OFFSET -0.078689 -15.686090 -0.193592
			CHANNELS 3 Xrotation Yrotation Zrotation
			JOINT mixamorig:RightFoot
			{
				OFFSET 0.082319 -14.982168 -1.116114
				CHANNELS 3 Xrotation Yrotation Zrotation
				JOINT mixamorig:RightToeBase
				{
					OFFSET -0.068893 -2.740607 4.031823
					CHANNELS 3 Xrotation Yrotation Zrotation
					JOINT mixamorig:RightToe_End
					{
						OFFSET 0.014961 0.028372 2.109263
						CHANNELS 3 Xrotation Yrotation Zrotation
						End Site
						{
							OFFSET 0.014961 0.028372 2.109263
						}
					}
				}
			}
		}
	}
}
MOTION
Frames: 11
Frame Time: 0.033333
0.112938 32.510834 -0.378584 -6.085903 -42.992243 -4.304766 5.812373 4.632013 -0.951508 11.836527 9.037565 -3.083956 11.836530 9.037578 -3.083958 -4.303029 -1.272916 0.206305 -6.271918 20.437791 -0.377164 -0.000000 0.000000 -0.000000 1.392512 -0.695818 -8.069635 -14.201466 2.323525 -60.432148 6.857189 -48.315187 -2.604435 15.287019 4.110353 20.620191 -0.278530 -16.979676 5.675948 2.863008 13.114615 -28.086226 -0.134723 -1.840528 3.691115 0.000005 -0.000000 -0.000001 1.410913 9.461298 9.980769 1.165638 -24.230781 57.674725 -9.277700 41.952268 16.297506 7.088425 11.419190 8.041199 -0.586352 -6.062595 6.834655 -2.181635 13.916309 11.869977 0.590564 -2.410505 -2.782427 -0.000001 -0.000003 -0.000000 -26.009482 6.175910 13.437632 33.703326 -14.061824 -0.195858 -5.092558 0.662893 -7.217247 -2.318969 -3.216980 0.802979 0.000001 -0.000000 -0.000000 -6.096406 -13.671171 -14.868632 33.816956 -9.155460 -0.417503 -20.134757 -3.732757 16.162475 -1.785761 -0.356904 0.333131 -0.000002 -0.000000 0.000000 
0.117300 32.514053 -0.382277 -6.116380 -43.016108 -4.326422 5.810009 4.634314 -0.953346 11.831807 9.042433 -3.085520 11.831813 9.042435 -3.085525 -4.267538 -1.279938 0.198309 -6.237595 20.414252 -0.374519 0.000000 0.000000 0.000000 1.391005 -0.717645 -8.065120 -14.200179 2.310721 -60.416951 6.852446 -48.329452 -2.616149 15.270720 4.112013 20.599979 -0.308939 -16.967409 5.590483 2.863679 13.114037 -28.088315 -0.134723 -1.840526 3.691115 0.000005 -0.000001 0.000002 1.417119 9.439848 9.941148 1.166809 -24.196555 57.686432 -9.240049 41.969098 16.312881 7.067598 11.397270 8.002978 -0.590694 -6.043971 6.754249 -2.171985 13.914677 11.832395 0.590564 -2.410505 -2.782427 0.000000 -0.000005 -0.000001 -25.971569 6.186557 13.437541 33.660583 -14.041498 -0.192779 -5.065820 0.662342 -7.227470 -2.303908 -3.208521 0.816923 0.000001 0.000002 0.000000 -6.084952 -13.676051 -14.876779 33.794499 -9.122801 -0.410456 -20.113946 -3.726541 16.143398 -1.786966 -0.354672 0.331055 -0.000002 -0.000003 0.000000 
0.122267 32.517426 -0.384466 -6.148171 -43.032371 -4.353011 5.804652 4.634718 -0.951534 11.820859 9.044250 -3.080684 11.820846 9.044246 -3.080680 -4.203146 -1.285063 0.185842 -6.168235 20.385427 -0.352581 0.000000 -0.000000 0.000000 1.393553 -0.717771 -8.029108 -14.206090 2.295142 -60.432694 6.833253 -48.343498 -2.631220 15.253891 4.117590 20.535024 -0.328465 -16.968833 5.528021 2.864382 13.107510 -28.133826 -0.134719 -1.840528 3.691115 0.000003 -0.000000 -0.000001 1.428277 9.401907 9.864746 1.182475 -24.138589 57.728943 -9.164326 41.988779 16.354876 7.018165 11.344697 7.924200 -0.594405 -6.032409 6.632709 -2.161891 13.913087 11.792333 0.590563 -2.410504 -2.782427 0.000000 -0.000002 0.000000 -25.934213 6.192919 13.433719 33.623874 -14.022619 -0.183595 -5.042741 0.661717 -7.236623 -2.285022 -3.205247 0.853489 0.000001 -0.000002 -0.000000 -6.063085 -13.680773 -14.880528 33.763053 -9.099876 -0.402080 -20.088368 -3.720007 16.128495 -1.785768 -0.359031 0.335273 -0.000002 0.000001 -0.000000 
0.127188 32.521233 -0.384128 -6.178126 -43.030096 -4.383201 5.794881 4.630721 -0.945000 11.800624 9.037671 -3.067495 11.800617 9.037672 -3.067496 -4.099251 -1.285172 0.175876 -6.042411 20.362467 -0.303962 -0.000001 0.000000 0.000000 1.400559 -0.685327 -7.944315 -14.206430 2.283442 -60.494091 6.809026 -48.378899 -2.646691 15.234039 4.121606 20.420264 -0.334155 -16.976203 5.497980 2.865520 13.097591 -28.202932 -0.134730 -1.840527 3.691115 0.000005 -0.000001 0.000000 1.444837 9.345347 9.745883 1.228428 -24.066373 57.822128 -9.060096 42.030184 16.418653 6.935615 11.263061 7.801896 -0.597131 -6.025082 6.525179 -2.160867 13.912870 11.788272 0.590561 -2.410501 -2.782426 0.000001 -0.000002 -0.000000 -25.899186 6.194492 13.426057 33.591987 -14.015431 -0.170716 -5.022841 0.660607 -7.240234 -2.261778 -3.208312 0.908056 0.000001 0.000005 -0.000000 -6.021569 -13.684496 -14.872812 33.713582 -9.101855 -0.395860 -20.055182 -3.714735 16.125168 -1.783751 -0.364838 0.340907 -0.000003 0.000001 -0.000000 
0.131139 32.525555 -0.380299 -6.207555 -43.003933 -4.414590 5.780698 4.620348 -0.934605 11.771060 9.019252 -3.047309 11.771050 9.019244 -3.047310 -3.950762 -1.279667 0.176263 -5.854086 20.356598 -0.233326 0.000000 -0.000000 -0.000000 1.412093 -0.612885 -7.804918 -14.185143 2.277190 -60.594884 6.799145 -48.450039 -2.661068 15.210386 4.115252 20.245804 -0.331984 -16.981080 5.485321 2.867226 13.085200 -28.288291 -0.134722 -1.840527 3.691115 0.000001 0.000001 -0.000001 1.466323 9.266558 9.592251 1.314002 -23.991289 57.972706 -8.938822 42.107570 16.494280 6.822978 11.160715 7.646967 -0.598852 -6.019721 6.467530 -2.164209 13.913477 11.801459 0.590564 -2.410502 -2.782426 0.000001 -0.000001 -0.000000 -25.864168 6.196027 13.415613 33.563003 -14.030299 -0.161552 -5.007116 0.658699 -7.231794 -2.242178 -3.219243 0.958205 0.000001 0.000001 -0.000000 -5.954392 -13.690059 -14.856029 33.642688 -9.131622 -0.392440 -20.015193 -3.711536 16.136267 -1.784700 -0.368141 0.344094 -0.000002 0.000001 -0.000000 
0.133596 32.530243 -0.372753 -6.244162 -42.959247 -4.446726 5.763923 4.604995 -0.922830 11.735954 8.991532 -3.024269 11.735967 8.991513 -3.024269 -3.762716 -1.271316 0.187293 -5.624194 20.369461 -0.161399 -0.000003 -0.000000 -0.000000 1.427872 -0.505968 -7.626435 -14.136789 2.272859 -60.705301 6.816785 -48.547106 -2.675725 15.186113 4.095308 20.005003 -0.334490 -16.983540 5.456167 2.869494 13.072012 -28.377631 -0.134721 -1.840527 3.691114 0.000005 -0.000000 -0.000002 1.491898 9.161648 9.419831 1.436129 -23.918195 58.165700 -8.802050 42.214578 16.574998 6.691353 11.048077 7.484641 -0.600568 -6.010671 6.445682 -2.159008 13.912500 11.781390 0.590563 -2.410503 -2.782426 0.000000 -0.000001 0.000000 -25.821701 6.205114 13.403422 33.535372 -14.069146 -0.162945 -4.996046 0.655976 -7.207765 -2.237302 -3.237017 0.980135 0.000001 0.000001 -0.000000 -5.862131 -13.703008 -14.841721 33.554940 -9.175154 -0.389253 -19.972354 -3.709572 16.156092 -1.791728 -0.367493 0.343317 -0.000002 -0.000000 -0.000000 
0.134731 32.535473 -0.361987 -6.293409 -42.909106 -4.480592 5.745986 4.589510 -0.911842 11.698558 8.963683 -3.002485 11.698562 8.963684 -3.002489 -3.549482 -1.264211 0.197763 -5.382132 20.385161 -0.104352 -0.000001 -0.000000 0.000000 1.446566 -0.381901 -7.433526 -14.071105 2.268231 -60.798724 6.855300 -48.643511 -2.692778 15.167149 4.066679 19.700887 -0.342761 -16.989413 5.406881 2.872197 13.057659 -28.473942 -0.134719 -1.840528 3.691114 -0.000001 -0.000002 -0.000002 1.520661 9.030031 9.238213 1.586877 -23.845352 58.376876 -8.638569 42.325108 16.661413 6.555113 10.931495 7.338821 -0.603127 -5.995213 6.432515 -2.143593 13.909953 11.720631 0.590563 -2.410501 -2.782427 0.000000 -0.000002 0.000000 -25.764047 6.225448 13.389467 33.504714 -14.121453 -0.174809 -4.989574 0.652736 -7.171948 -2.246690 -3.253039 0.972911 0.000001 -0.000001 -0.000000 -5.748807 -13.725167 -14.837555 33.451733 -9.214748 -0.385258 -19.926969 -3.707640 16.179236 -1.802538 -0.363360 0.339234 -0.000002 -0.000000 -0.000000 
0.135155 32.542068 -0.348691 -6.348255 -42.868098 -4.513427 5.725751 4.578925 -0.902732 11.656959 8.945956 -2.984425 11.656960 8.945957 -2.984427 -3.331962 -1.260563 0.192977 -5.139558 20.375341 -0.051008 0.000001 0.000000 0.000000 1.466541 -0.254813 -7.237886 -14.001739 2.264026 -60.876868 6.899119 -48.722236 -2.712313 15.157062 4.034340 19.345585 -0.347504 -16.996373 5.364168 2.874513 13.039800 -28.596798 -0.134725 -1.840525 3.691116 0.000005 -0.000004 0.000003 1.551135 8.879273 9.045616 1.763300 -23.775091 58.592703 -8.444247 42.411452 16.754886 6.428570 10.816856 7.221348 -0.605734 -5.979732 6.423315 -2.137415 13.908942 11.696145 0.590561 -2.410505 -2.782427 -0.000001 -0.000003 -0.000001 -25.690536 6.253002 13.371855 33.463726 -14.167793 -0.189779 -4.984166 0.649523 -7.134399 -2.256525 -3.256225 0.955666 0.000001 0.000003 -0.000000 -5.623479 -13.751977 -14.841009 33.327836 -9.242125 -0.382646 -19.873909 -3.704467 16.202132 -1.810386 -0.358513 0.334391 -0.000002 0.000003 0.000000 
0.135531 32.550793 -0.333251 -6.393595 -42.844793 -4.539383 5.700720 4.576173 -0.895490 11.606306 8.943707 -2.970362 11.606301 8.943705 -2.970359 -3.127892 -1.259416 0.170587 -4.896183 20.327978 0.021923 -0.000000 -0.000000 -0.000000 1.487105 -0.123154 -7.032904 -13.933953 2.258373 -60.964233 6.943436 -48.789103 -2.732569 15.153919 3.997624 18.955836 -0.352112 -16.997235 5.320266 2.876535 13.019845 -28.735927 -0.134722 -1.840528 3.691114 -0.000001 -0.000002 0.000003 1.581320 8.723191 8.834762 1.966478 -23.717337 58.815421 -8.237265 42.461917 16.851726 6.319964 10.714861 7.138168 -0.607058 -5.971446 6.420673 -2.153987 13.911654 11.761701 0.590562 -2.410504 -2.782426 0.000000 -0.000003 -0.000000 -25.607317 6.279425 13.347411 33.406537 -14.190167 -0.198306 -4.977181 0.646778 -7.105149 -2.255412 -3.245693 0.945481 0.000001 0.000003 0.000000 -5.496587 -13.777573 -14.845737 33.175871 -9.257194 -0.381938 -19.806645 -3.698937 16.221370 -1.811410 -0.355088 0.331064 -0.000003 -0.000000 -0.000000 
0.136610 32.561089 -0.315917 -6.423159 -42.840572 -4.557936 5.670631 4.580175 -0.888629 11.545993 8.955080 -2.958052 11.545990 8.955078 -2.958051 -2.938933 -1.258379 0.149473 -4.669562 20.275765 0.101860 -0.000001 0.000000 0.000001 1.508527 0.023568 -6.810122 -13.865022 2.243843 -61.080722 6.998068 -48.862197 -2.751149 15.153335 3.956240 18.543641 -0.367679 -16.994334 5.244389 2.878929 13.000847 -28.866442 -0.134723 -1.840527 3.691117 0.000003 -0.000001 0.000003 1.609370 8.572609 8.602793 2.190671 -23.675083 59.047866 -8.040490 42.483240 16.944041 6.228958 10.634576 7.100346 -0.606457 -5.974651 6.431525 -2.174339 13.914907 11.841949 0.590561 -2.410503 -2.782427 -0.000001 -0.000003 -0.000000 -25.523293 6.297469 13.314989 33.341558 -14.181138 -0.194500 -4.971220 0.644894 -7.087861 -2.245912 -3.235511 0.945434 0.000001 -0.000003 -0.000000 -5.376368 -13.800212 -14.850515 33.002333 -9.258262 -0.380572 -19.727084 -3.691490 16.237096 -1.806722 -0.351928 0.328141 -0.000002 0.000000 0.000000 
0.139424 32.571098 -0.297316 -6.447050 -42.852252 -4.575994 5.638894 4.588073 -0.880744 11.482569 8.974113 -2.944646 11.482569 8.974094 -2.944643 -2.750058 -1.257513 0.154976 -4.493809 20.271455 0.134465 0.000001 0.000000 0.000001 1.530975 0.187931 -6.572969 -13.793564 2.212022 -61.227626 7.072965 -48.952147 -2.766356 15.154081 3.916459 18.109630 -0.401272 -16.995430 5.116212 2.881509 12.983486 -28.984471 -0.134728 -1.840526 3.691113 0.000004 -0.000002 0.000004 1.634863 8.428549 8.354768 2.416899 -23.631416 59.279294 -7.853751 42.490839 17.025418 6.148092 10.570182 7.119028 -0.603162 -5.992323 6.463671 -2.169473 13.914101 11.822772 0.590564 -2.410506 -2.782427 -0.000001 -0.000003 -0.000000 -25.444420 6.308046 13.277591 33.288354 -14.147910 -0.180832 -4.973089 0.643818 -7.076970 -2.237648 -3.239363 0.950503 0.000001 0.000000 -0.000000 -5.267570 -13.820313 -14.859591 32.829055 -9.243436 -0.378874 -19.644633 -3.683417 16.250816 -1.798277 -0.346960 0.323306 -0.000002 0.000000 0.000000 
